{
    "asset" : {
        "generator" : "Khronos glTF Blender I/O v1.1.46",
        "version" : "2.0"
    },
    "scene" : 0,
    "scenes" : [
        {
            "name" : "Scene",
            "nodes" : [
                0,
                1,
                2,
                3
            ]
        }
    ],
    "nodes" : [
        {
            "name" : "Light",
            "rotation" : [
                0.16907575726509094,
                0.7558803558349609,
                -0.27217137813568115,
                0.570947527885437
            ],
            "translation" : [
                4.076245307922363,
                5.903861999511719,
                -1.0054539442062378
            ]
        },
        {
            "name" : "Camera",
            "rotation" : [
                0.483536034822464,
                0.33687159419059753,
                -0.20870360732078552,
                0.7804827094078064
            ],
            "translation" : [
                7.358891487121582,
                4.958309173583984,
                6.925790786743164
            ]
        },
        {
            "mesh" : 0,
            "name" : "Cylinder.003",
            "scale" : [
                0.02284773252904415,
                0.9418950080871582,
                0.02284773252904415
            ],
            "translation" : [
                1.1451207399368286,
                0.94197016954422,
                0.677838921546936
            ]
        },
        {
            "mesh" : 1,
            "name" : "Torus.001",
            "rotation" : [
                0,
                0,
                -0.7071067690849304,
                0.7071068286895752
            ],
            "translation" : [
                2.3061628341674805,
                -0.1914203017950058,
                0
            ]
        }
    ],
    "materials" : [
        {
            "doubleSided" : true,
            "emissiveFactor" : [
                0.07657736539840698,
                0.07657736539840698,
                0.07657736539840698
            ],
            "name" : "Material.003",
            "pbrMetallicRoughness" : {
                "baseColorTexture" : {
                    "index" : 0,
                    "texCoord" : 0
                },
                "metallicFactor" : 0.34999996423721313,
                "roughnessFactor" : 0.25
            }
        },
        {
            "doubleSided" : true,
            "emissiveFactor" : [
                0.014942388981580734,
                0.022725842893123627,
                0.044452980160713196
            ],
            "name" : "Material.001",
            "pbrMetallicRoughness" : {
                "baseColorTexture" : {
                    "index" : 1,
                    "texCoord" : 0
                },
                "metallicFactor" : 0,
                "roughnessFactor" : 1
            }
        }
    ],
    "meshes" : [
        {
            "name" : "Cylinder.005",
            "primitives" : [
                {
                    "attributes" : {
                        "POSITION" : 0,
                        "NORMAL" : 1,
                        "TEXCOORD_0" : 2
                    },
                    "indices" : 3,
                    "material" : 0
                }
            ]
        },
        {
            "name" : "Torus.001",
            "primitives" : [
                {
                    "attributes" : {
                        "POSITION" : 4,
                        "NORMAL" : 5,
                        "TEXCOORD_0" : 6
                    },
                    "indices" : 7,
                    "material" : 1
                }
            ]
        }
    ],
    "textures" : [
        {
            "source" : 0
        },
        {
            "source" : 1
        }
    ],
    "images" : [
        {
            "bufferView" : 4,
            "mimeType" : "image/jpeg",
            "name" : "130616_header2"
        },
        {
            "bufferView" : 9,
            "mimeType" : "image/jpeg",
            "name" : "texture-blue-rubber_78621-1062"
        }
    ],
    "accessors" : [
        {
            "bufferView" : 0,
            "componentType" : 5126,
            "count" : 840,
            "max" : [
                1,
                0.6706008315086365,
                1.3042984008789062
            ],
            "min" : [
                -101.98182678222656,
                -0.6781628727912903,
                -60.63963317871094
            ],
            "type" : "VEC3"
        },
        {
            "bufferView" : 1,
            "componentType" : 5126,
            "count" : 840,
            "type" : "VEC3"
        },
        {
            "bufferView" : 2,
            "componentType" : 5126,
            "count" : 840,
            "type" : "VEC2"
        },
        {
            "bufferView" : 3,
            "componentType" : 5123,
            "count" : 1596,
            "type" : "SCALAR"
        },
        {
            "bufferView" : 5,
            "componentType" : 5126,
            "count" : 2352,
            "max" : [
                -1.7648138999938965,
                -1.1370892524719238,
                0.7016687989234924
            ],
            "min" : [
                -1.881906509399414,
                -3.4911320209503174,
                -0.7040126323699951
            ],
            "type" : "VEC3"
        },
        {
            "bufferView" : 6,
            "componentType" : 5126,
            "count" : 2352,
            "type" : "VEC3"
        },
        {
            "bufferView" : 7,
            "componentType" : 5126,
            "count" : 2352,
            "type" : "VEC2"
        },
        {
            "bufferView" : 8,
            "componentType" : 5123,
            "count" : 3576,
            "type" : "SCALAR"
        }
    ],
    "bufferViews" : [
        {
            "buffer" : 0,
            "byteLength" : 10080,
            "byteOffset" : 0
        },
        {
            "buffer" : 0,
            "byteLength" : 10080,
            "byteOffset" : 10080
        },
        {
            "buffer" : 0,
            "byteLength" : 6720,
            "byteOffset" : 20160
        },
        {
            "buffer" : 0,
            "byteLength" : 3192,
            "byteOffset" : 26880
        },
        {
            "buffer" : 0,
            "byteLength" : 82335,
            "byteOffset" : 30072
        },
        {
            "buffer" : 0,
            "byteLength" : 28224,
            "byteOffset" : 112408
        },
        {
            "buffer" : 0,
            "byteLength" : 28224,
            "byteOffset" : 140632
        },
        {
            "buffer" : 0,
            "byteLength" : 18816,
            "byteOffset" : 168856
        },
        {
            "buffer" : 0,
            "byteLength" : 7152,
            "byteOffset" : 187672
        },
        {
            "buffer" : 0,
            "byteLength" : 140863,
            "byteOffset" : 194824
        }
    ],
    "buffers" : [
        {
            "byteLength" : 335688,
            "uri" : "data:application/octet-stream;base64,"
        }
    ]
}
