{
    "asset" : {
        "generator" : "Khronos glTF Blender I/O v1.1.46",
        "version" : "2.0"
    },
    "scene" : 0,
    "scenes" : [
        {
            "name" : "Scene",
            "nodes" : [
                0,
                1,
                2,
                3,
                4,
                5,
                6,
                7,
                8,
                9,
                10
            ]
        }
    ],
    "nodes" : [
        {
            "mesh" : 0,
            "name" : "Cube",
            "scale" : [
                1.1548640727996826,
                0.010668585076928139,
                0.7076391577720642
            ],
            "translation" : [
                0,
                1.4443161487579346,
                0
            ]
        },
        {
            "name" : "Light",
            "rotation" : [
                0.16907575726509094,
                0.7558803558349609,
                -0.27217137813568115,
                0.570947527885437
            ],
            "translation" : [
                4.076245307922363,
                5.903861999511719,
                -1.0054539442062378
            ]
        },
        {
            "name" : "Camera",
            "rotation" : [
                0.483536034822464,
                0.33687159419059753,
                -0.20870360732078552,
                0.7804827094078064
            ],
            "translation" : [
                7.358891487121582,
                4.958309173583984,
                6.925790786743164
            ]
        },
        {
            "mesh" : 1,
            "name" : "Cube.001",
            "scale" : [
                1.1548640727996826,
                0.010668585076928139,
                0.7076391577720642
            ],
            "translation" : [
                0,
                1.1136724948883057,
                0
            ]
        },
        {
            "mesh" : 2,
            "name" : "Cylinder",
            "scale" : [
                0.02284773252904415,
                0.9418950080871582,
                0.02284773252904415
            ],
            "translation" : [
                -1.1620850563049316,
                0.94197016954422,
                -0.680391252040863
            ]
        },
        {
            "mesh" : 3,
            "name" : "Cylinder.001",
            "scale" : [
                0.02284773252904415,
                0.9418950080871582,
                0.02284773252904415
            ],
            "translation" : [
                -1.1620850563049316,
                0.94197016954422,
                0.677838921546936
            ]
        },
        {
            "mesh" : 4,
            "name" : "Torus",
            "rotation" : [
                0,
                0,
                -0.7071067690849304,
                0.7071068286895752
            ],
            "translation" : [
                -0.0010427826782688498,
                -0.1914203017950058,
                0
            ]
        },
        {
            "mesh" : 5,
            "name" : "Cube.003",
            "scale" : [
                1.1548640727996826,
                0.010668585076928139,
                0.7076391577720642
            ],
            "translation" : [
                0,
                0.7845104932785034,
                0
            ]
        },
        {
            "mesh" : 6,
            "name" : "Cylinder.002",
            "scale" : [
                0.02284773252904415,
                0.9418950080871582,
                0.02284773252904415
            ],
            "translation" : [
                1.1451207399368286,
                0.94197016954422,
                -0.680391252040863
            ]
        },
        {
            "mesh" : 7,
            "name" : "Cylinder.003",
            "scale" : [
                0.02284773252904415,
                0.9418950080871582,
                0.02284773252904415
            ],
            "translation" : [
                1.1451207399368286,
                0.94197016954422,
                0.677838921546936
            ]
        },
        {
            "mesh" : 8,
            "name" : "Torus.001",
            "rotation" : [
                0,
                0,
                -0.7071067690849304,
                0.7071068286895752
            ],
            "translation" : [
                2.3061628341674805,
                -0.1914203017950058,
                0
            ]
        }
    ],
    "materials" : [
        {
            "doubleSided" : true,
            "emissiveFactor" : [
                0.20444655418395996,
                0.1959858238697052,
                0.21403300762176514
            ],
            "name" : "Material.003",
            "pbrMetallicRoughness" : {
                "baseColorFactor" : [
                    0.031063420698046684,
                    0.02892743982374668,
                    0.03052756004035473,
                    1
                ],
                "metallicFactor" : 0.34999996423721313,
                "roughnessFactor" : 0.25
            }
        },
        {
            "doubleSided" : true,
            "emissiveFactor" : [
                0.12549403309822083,
                0.21041399240493774,
                0.46719855070114136
            ],
            "name" : "Material.001",
            "pbrMetallicRoughness" : {
                "baseColorFactor" : [
                    0,
                    0.003502544015645981,
                    0.0522179938852787,
                    1
                ],
                "metallicFactor" : 0,
                "roughnessFactor" : 1
            }
        }
    ],
    "meshes" : [
        {
            "name" : "Cube",
            "primitives" : [
                {
                    "attributes" : {
                        "POSITION" : 0,
                        "NORMAL" : 1,
                        "TEXCOORD_0" : 2
                    },
                    "indices" : 3,
                    "material" : 0
                }
            ]
        },
        {
            "name" : "Cube.001",
            "primitives" : [
                {
                    "attributes" : {
                        "POSITION" : 4,
                        "NORMAL" : 5,
                        "TEXCOORD_0" : 6
                    },
                    "indices" : 3,
                    "material" : 0
                }
            ]
        },
        {
            "name" : "Cylinder",
            "primitives" : [
                {
                    "attributes" : {
                        "POSITION" : 7,
                        "NORMAL" : 8,
                        "TEXCOORD_0" : 9
                    },
                    "indices" : 10,
                    "material" : 0
                }
            ]
        },
        {
            "name" : "Cylinder.001",
            "primitives" : [
                {
                    "attributes" : {
                        "POSITION" : 11,
                        "NORMAL" : 12,
                        "TEXCOORD_0" : 13
                    },
                    "indices" : 10,
                    "material" : 0
                }
            ]
        },
        {
            "name" : "Torus",
            "primitives" : [
                {
                    "attributes" : {
                        "POSITION" : 14,
                        "NORMAL" : 15,
                        "TEXCOORD_0" : 16
                    },
                    "indices" : 17,
                    "material" : 1
                }
            ]
        },
        {
            "name" : "Cube.003",
            "primitives" : [
                {
                    "attributes" : {
                        "POSITION" : 18,
                        "NORMAL" : 19,
                        "TEXCOORD_0" : 20
                    },
                    "indices" : 3,
                    "material" : 0
                }
            ]
        },
        {
            "name" : "Cylinder.004",
            "primitives" : [
                {
                    "attributes" : {
                        "POSITION" : 21,
                        "NORMAL" : 22,
                        "TEXCOORD_0" : 23
                    },
                    "indices" : 10,
                    "material" : 0
                }
            ]
        },
        {
            "name" : "Cylinder.005",
            "primitives" : [
                {
                    "attributes" : {
                        "POSITION" : 24,
                        "NORMAL" : 25,
                        "TEXCOORD_0" : 26
                    },
                    "indices" : 10,
                    "material" : 0
                }
            ]
        },
        {
            "name" : "Torus.001",
            "primitives" : [
                {
                    "attributes" : {
                        "POSITION" : 27,
                        "NORMAL" : 28,
                        "TEXCOORD_0" : 29
                    },
                    "indices" : 17,
                    "material" : 1
                }
            ]
        }
    ],
    "accessors" : [
        {
            "bufferView" : 0,
            "componentType" : 5126,
            "count" : 24,
            "max" : [
                1,
                1,
                1
            ],
            "min" : [
                -1,
                -1,
                -1
            ],
            "type" : "VEC3"
        },
        {
            "bufferView" : 1,
            "componentType" : 5126,
            "count" : 24,
            "type" : "VEC3"
        },
        {
            "bufferView" : 2,
            "componentType" : 5126,
            "count" : 24,
            "type" : "VEC2"
        },
        {
            "bufferView" : 3,
            "componentType" : 5123,
            "count" : 36,
            "type" : "SCALAR"
        },
        {
            "bufferView" : 4,
            "componentType" : 5126,
            "count" : 24,
            "max" : [
                1,
                1,
                1
            ],
            "min" : [
                -1,
                -1,
                -1
            ],
            "type" : "VEC3"
        },
        {
            "bufferView" : 5,
            "componentType" : 5126,
            "count" : 24,
            "type" : "VEC3"
        },
        {
            "bufferView" : 6,
            "componentType" : 5126,
            "count" : 24,
            "type" : "VEC2"
        },
        {
            "bufferView" : 7,
            "componentType" : 5126,
            "count" : 192,
            "max" : [
                1,
                0.6706008315086365,
                1
            ],
            "min" : [
                -1,
                -0.6781628727912903,
                -1
            ],
            "type" : "VEC3"
        },
        {
            "bufferView" : 8,
            "componentType" : 5126,
            "count" : 192,
            "type" : "VEC3"
        },
        {
            "bufferView" : 9,
            "componentType" : 5126,
            "count" : 192,
            "type" : "VEC2"
        },
        {
            "bufferView" : 10,
            "componentType" : 5123,
            "count" : 372,
            "type" : "SCALAR"
        },
        {
            "bufferView" : 11,
            "componentType" : 5126,
            "count" : 192,
            "max" : [
                1,
                0.6706008315086365,
                1
            ],
            "min" : [
                -1,
                -0.6781628727912903,
                -1
            ],
            "type" : "VEC3"
        },
        {
            "bufferView" : 12,
            "componentType" : 5126,
            "count" : 192,
            "type" : "VEC3"
        },
        {
            "bufferView" : 13,
            "componentType" : 5126,
            "count" : 192,
            "type" : "VEC2"
        },
        {
            "bufferView" : 14,
            "componentType" : 5126,
            "count" : 1176,
            "max" : [
                -1.7648138999938965,
                -1.1370892524719238,
                0.7016687989234924
            ],
            "min" : [
                -1.881906270980835,
                -1.1839263439178467,
                -0.7040126323699951
            ],
            "type" : "VEC3"
        },
        {
            "bufferView" : 15,
            "componentType" : 5126,
            "count" : 1176,
            "type" : "VEC3"
        },
        {
            "bufferView" : 16,
            "componentType" : 5126,
            "count" : 1176,
            "type" : "VEC2"
        },
        {
            "bufferView" : 17,
            "componentType" : 5123,
            "count" : 1788,
            "type" : "SCALAR"
        },
        {
            "bufferView" : 18,
            "componentType" : 5126,
            "count" : 24,
            "max" : [
                1,
                1,
                1
            ],
            "min" : [
                -1,
                -1,
                -1
            ],
            "type" : "VEC3"
        },
        {
            "bufferView" : 19,
            "componentType" : 5126,
            "count" : 24,
            "type" : "VEC3"
        },
        {
            "bufferView" : 20,
            "componentType" : 5126,
            "count" : 24,
            "type" : "VEC2"
        },
        {
            "bufferView" : 21,
            "componentType" : 5126,
            "count" : 192,
            "max" : [
                1,
                0.6706008315086365,
                1
            ],
            "min" : [
                -1,
                -0.6781628727912903,
                -1
            ],
            "type" : "VEC3"
        },
        {
            "bufferView" : 22,
            "componentType" : 5126,
            "count" : 192,
            "type" : "VEC3"
        },
        {
            "bufferView" : 23,
            "componentType" : 5126,
            "count" : 192,
            "type" : "VEC2"
        },
        {
            "bufferView" : 24,
            "componentType" : 5126,
            "count" : 192,
            "max" : [
                1,
                0.6706008315086365,
                1
            ],
            "min" : [
                -1,
                -0.6781628727912903,
                -1
            ],
            "type" : "VEC3"
        },
        {
            "bufferView" : 25,
            "componentType" : 5126,
            "count" : 192,
            "type" : "VEC3"
        },
        {
            "bufferView" : 26,
            "componentType" : 5126,
            "count" : 192,
            "type" : "VEC2"
        },
        {
            "bufferView" : 27,
            "componentType" : 5126,
            "count" : 1176,
            "max" : [
                -1.7648138999938965,
                -1.1370892524719238,
                0.7016687989234924
            ],
            "min" : [
                -1.881906270980835,
                -1.1839263439178467,
                -0.7040126323699951
            ],
            "type" : "VEC3"
        },
        {
            "bufferView" : 28,
            "componentType" : 5126,
            "count" : 1176,
            "type" : "VEC3"
        },
        {
            "bufferView" : 29,
            "componentType" : 5126,
            "count" : 1176,
            "type" : "VEC2"
        }
    ],
    "bufferViews" : [
        {
            "buffer" : 0,
            "byteLength" : 288,
            "byteOffset" : 0
        },
        {
            "buffer" : 0,
            "byteLength" : 288,
            "byteOffset" : 288
        },
        {
            "buffer" : 0,
            "byteLength" : 192,
            "byteOffset" : 576
        },
        {
            "buffer" : 0,
            "byteLength" : 72,
            "byteOffset" : 768
        },
        {
            "buffer" : 0,
            "byteLength" : 288,
            "byteOffset" : 840
        },
        {
            "buffer" : 0,
            "byteLength" : 288,
            "byteOffset" : 1128
        },
        {
            "buffer" : 0,
            "byteLength" : 192,
            "byteOffset" : 1416
        },
        {
            "buffer" : 0,
            "byteLength" : 2304,
            "byteOffset" : 1608
        },
        {
            "buffer" : 0,
            "byteLength" : 2304,
            "byteOffset" : 3912
        },
        {
            "buffer" : 0,
            "byteLength" : 1536,
            "byteOffset" : 6216
        },
        {
            "buffer" : 0,
            "byteLength" : 744,
            "byteOffset" : 7752
        },
        {
            "buffer" : 0,
            "byteLength" : 2304,
            "byteOffset" : 8496
        },
        {
            "buffer" : 0,
            "byteLength" : 2304,
            "byteOffset" : 10800
        },
        {
            "buffer" : 0,
            "byteLength" : 1536,
            "byteOffset" : 13104
        },
        {
            "buffer" : 0,
            "byteLength" : 14112,
            "byteOffset" : 14640
        },
        {
            "buffer" : 0,
            "byteLength" : 14112,
            "byteOffset" : 28752
        },
        {
            "buffer" : 0,
            "byteLength" : 9408,
            "byteOffset" : 42864
        },
        {
            "buffer" : 0,
            "byteLength" : 3576,
            "byteOffset" : 52272
        },
        {
            "buffer" : 0,
            "byteLength" : 288,
            "byteOffset" : 55848
        },
        {
            "buffer" : 0,
            "byteLength" : 288,
            "byteOffset" : 56136
        },
        {
            "buffer" : 0,
            "byteLength" : 192,
            "byteOffset" : 56424
        },
        {
            "buffer" : 0,
            "byteLength" : 2304,
            "byteOffset" : 56616
        },
        {
            "buffer" : 0,
            "byteLength" : 2304,
            "byteOffset" : 58920
        },
        {
            "buffer" : 0,
            "byteLength" : 1536,
            "byteOffset" : 61224
        },
        {
            "buffer" : 0,
            "byteLength" : 2304,
            "byteOffset" : 62760
        },
        {
            "buffer" : 0,
            "byteLength" : 2304,
            "byteOffset" : 65064
        },
        {
            "buffer" : 0,
            "byteLength" : 1536,
            "byteOffset" : 67368
        },
        {
            "buffer" : 0,
            "byteLength" : 14112,
            "byteOffset" : 68904
        },
        {
            "buffer" : 0,
            "byteLength" : 14112,
            "byteOffset" : 83016
        },
        {
            "buffer" : 0,
            "byteLength" : 9408,
            "byteOffset" : 97128
        }
    ],
    "buffers" : [
        {
            "byteLength" : 106536,
            "uri" : "data:application/octet-stream;base64,"
        }
    ]
}
